<svg width="272" height="51" viewBox="0 0 272 51" fill="none" xmlns="http://www.w3.org/2000/svg">
<rect x="74.3" y="25.425" width="16.7506" height="5.08501" rx="2.5425" fill="#F0F0F0"/>
<path d="M78.6527 39.9908C80.1485 33.7093 80.5972 23.3898 78.9519 16.0614C87.4766 15.0144 86.1308 24.7358 85.9813 31.0173C85.8318 37.2987 84.6352 39.243 82.3919 39.9908C80.5972 40.589 79.1513 40.2401 78.6527 39.9908Z" fill="white"/>
<path d="M64.295 44.7767C66.6235 34.895 68.3331 22.1933 65.1924 10.9763C79.6996 6.34001 76.9411 22.7807 76.7084 32.6624C76.4756 42.5441 75.0632 43.4307 71.9225 45.0758C69.3109 46.4438 65.0711 45.1688 64.295 44.7767Z" fill="white"/>
<rect width="16.7506" height="5.08501" rx="2.5425" transform="matrix(-1 0 0 1 16.7507 25.425)" fill="#F0F0F0"/>
<path d="M12.3983 39.9908C10.9026 33.7093 10.4538 23.3898 12.0992 16.0614C3.57442 15.0144 4.92023 24.7358 5.06975 31.0173C5.21927 37.2987 6.41578 39.243 8.65917 39.9908C10.4539 40.589 11.8997 40.2401 12.3983 39.9908Z" fill="white"/>
<path d="M26.7558 44.7767C24.4273 34.895 22.7177 22.1933 25.8584 10.9763C11.3512 6.34001 14.1097 22.7807 14.3424 32.6624C14.5752 42.5441 15.9875 43.4307 19.1283 45.0758C21.7399 46.4438 25.9797 45.1688 26.7558 44.7767Z" fill="white"/>
<circle cx="45.7496" cy="8.67442" r="8.67442" fill="orange"/>
<g clip-path="url(#clip0_1221_19)">
<path d="M57.778 9.1525C57.778 9.1525 59.5021 18.4773 43.2458 21.1161C34.4126 22.5491 26.4568 29.2783 31.3748 43.2549C33.1511 37.8348 38.3618 26.1537 50.3982 25.7459C50.3982 25.7459 38.9065 27.5136 34.2086 45.364C39.527 47.2735 52.2682 50.4646 58.4037 40.1084C66.5072 26.425 57.778 9.1525 57.778 9.1525Z" fill="white"/>
<path d="M34.2292 45.29C46.8257 43.069 57.5515 33.9567 61.4211 21.2193C60.3784 14.3108 57.778 9.1525 57.778 9.1525C57.778 9.1525 59.5021 18.4773 43.2458 21.1161C34.4126 22.5491 26.4568 29.2784 31.3748 43.2549C33.1511 37.8348 38.3618 26.1538 50.3982 25.7459C50.3975 25.7459 38.9396 27.5102 34.2292 45.29Z" fill="white"/>
<path d="M32.191 14.0275C32.7975 14.1189 33.3632 13.7013 33.4547 13.0948C33.5461 12.4883 33.1285 11.9225 32.522 11.8311C31.9155 11.7397 31.3497 12.1573 31.2583 12.7638C31.1669 13.3703 31.5845 13.936 32.191 14.0275Z" fill="white"/>
<path d="M36.3641 16.3438C36.7973 16.4091 37.2014 16.1108 37.2667 15.6776C37.332 15.2444 37.0337 14.8403 36.6005 14.775C36.1673 14.7097 35.7632 15.008 35.6979 15.4412C35.6326 15.8744 35.9309 16.2785 36.3641 16.3438Z" fill="white"/>
<path d="M33.515 21.3905C33.8616 21.4428 34.1849 21.2042 34.2371 20.8576C34.2894 20.511 34.0507 20.1877 33.7042 20.1355C33.3576 20.0833 33.0343 20.3219 32.9821 20.6684C32.9298 21.015 33.1684 21.3383 33.515 21.3905Z" fill="white"/>
<path d="M38.5803 20.3316C39.5767 20.4817 40.5061 19.7958 40.6563 18.7994C40.8065 17.803 40.1205 16.8736 39.1242 16.7234C38.1278 16.5732 37.1983 17.2592 37.0481 18.2556C36.898 19.2519 37.5839 20.1814 38.5803 20.3316Z" fill="white"/>
</g>
<path d="M33.353 7.80686C34.436 7.9701 35.4462 7.22448 35.6095 6.14148C35.7727 5.05848 35.0271 4.04821 33.9441 3.88498C32.8611 3.72174 31.8508 4.46736 31.6876 5.55036C31.5244 6.63336 32.27 7.64363 33.353 7.80686Z" fill="white"/>
<path d="M132.941 12.9207V41.5063H127.721L115.284 23.5146H115.075V41.5063H109.031V12.9207H114.335L126.674 30.8983H126.925V12.9207H132.941ZM147.593 41.925C145.388 41.925 143.489 41.4783 141.898 40.585C140.316 39.6824 139.097 38.4076 138.241 36.7606C137.385 35.1043 136.957 33.1455 136.957 30.8844C136.957 28.679 137.385 26.7436 138.241 25.0779C139.097 23.4123 140.302 22.1142 141.856 21.1837C143.42 20.2532 145.253 19.7879 147.356 19.7879C148.77 19.7879 150.087 20.0159 151.306 20.4718C152.534 20.9185 153.604 21.5931 154.516 22.4957C155.437 23.3983 156.154 24.5336 156.666 25.9014C157.177 27.26 157.433 28.8512 157.433 30.675V32.3081H139.33V28.6232H151.836C151.836 27.7671 151.65 27.0088 151.278 26.3481C150.906 25.6874 150.389 25.171 149.729 24.7988C149.077 24.4173 148.319 24.2265 147.453 24.2265C146.551 24.2265 145.751 24.4359 145.053 24.8546C144.364 25.264 143.824 25.8177 143.434 26.5156C143.043 27.2042 142.843 27.9718 142.833 28.8186V32.322C142.833 33.3828 143.029 34.2994 143.42 35.0717C143.82 35.844 144.383 36.4396 145.109 36.8583C145.834 37.277 146.695 37.4864 147.691 37.4864C148.351 37.4864 148.956 37.3934 149.505 37.2073C150.054 37.0211 150.524 36.742 150.915 36.3698C151.306 35.9976 151.604 35.5416 151.808 35.0019L157.308 35.3648C157.029 36.6862 156.456 37.84 155.591 38.8264C154.735 39.8034 153.627 40.5664 152.269 41.1154C150.92 41.6551 149.361 41.925 147.593 41.925ZM171 41.925C168.832 41.925 166.957 41.4644 165.375 40.5432C163.803 39.6126 162.588 38.3192 161.732 36.6629C160.876 34.9973 160.448 33.0664 160.448 30.8704C160.448 28.6558 160.876 26.7203 161.732 25.064C162.588 23.3983 163.803 22.1049 165.375 21.1837C166.957 20.2532 168.832 19.7879 171 19.7879C173.168 19.7879 175.039 20.2532 176.611 21.1837C178.193 22.1049 179.412 23.3983 180.268 25.064C181.124 26.7203 181.552 28.6558 181.552 30.8704C181.552 33.0664 181.124 34.9973 180.268 36.6629C179.412 38.3192 178.193 39.6126 176.611 40.5432C175.039 41.4644 173.168 41.925 171 41.925ZM171.028 37.3189C172.015 37.3189 172.838 37.0398 173.499 36.4814C174.159 35.9138 174.657 35.1415 174.992 34.1645C175.337 33.1874 175.509 32.0754 175.509 30.8285C175.509 29.5816 175.337 28.4697 174.992 27.4926C174.657 26.5156 174.159 25.7432 173.499 25.1756C172.838 24.608 172.015 24.3242 171.028 24.3242C170.033 24.3242 169.195 24.608 168.516 25.1756C167.846 25.7432 167.339 26.5156 166.994 27.4926C166.659 28.4697 166.492 29.5816 166.492 30.8285C166.492 32.0754 166.659 33.1874 166.994 34.1645C167.339 35.1415 167.846 35.9138 168.516 36.4814C169.195 37.0398 170.033 37.3189 171.028 37.3189ZM204.485 22.1607C204.29 21.4815 204.015 20.8813 203.662 20.3602C203.308 19.8298 202.875 19.3831 202.363 19.0202C201.861 18.648 201.284 18.3642 200.633 18.1688C199.991 17.9734 199.279 17.8757 198.497 17.8757C197.036 17.8757 195.752 18.2386 194.645 18.9644C193.547 19.6902 192.691 20.7464 192.077 22.1328C191.462 23.51 191.155 25.1942 191.155 27.1856C191.155 29.1769 191.458 30.8704 192.063 32.2662C192.667 33.662 193.524 34.7274 194.631 35.4625C195.738 36.1883 197.046 36.5512 198.553 36.5512C199.921 36.5512 201.089 36.3093 202.056 35.8254C203.033 35.3323 203.778 34.639 204.29 33.7457C204.811 32.8524 205.071 31.7963 205.071 30.5773L206.3 30.7587H198.93V26.2085H210.892V29.8096C210.892 32.322 210.361 34.4808 209.3 36.286C208.24 38.0819 206.779 39.4684 204.918 40.4455C203.057 41.4132 200.926 41.8971 198.525 41.8971C195.845 41.8971 193.491 41.3062 191.462 40.1244C189.434 38.9334 187.852 37.2445 186.717 35.0578C185.591 32.8617 185.028 30.2563 185.028 27.2414C185.028 24.9244 185.363 22.8586 186.033 21.0441C186.712 19.2203 187.661 17.6756 188.88 16.4101C190.099 15.1446 191.518 14.1815 193.137 13.5209C194.756 12.8602 196.51 12.5299 198.399 12.5299C200.019 12.5299 201.526 12.7671 202.922 13.2417C204.318 13.707 205.555 14.3676 206.635 15.2237C207.723 16.0798 208.612 17.0987 209.3 18.2805C209.989 19.4529 210.431 20.7464 210.626 22.1607H204.485ZM218.991 49.546C218.237 49.546 217.53 49.4855 216.869 49.3645C216.218 49.2528 215.678 49.1086 215.25 48.9318L216.59 44.4932C217.288 44.7072 217.916 44.8236 218.474 44.8422C219.042 44.8608 219.53 44.7305 219.94 44.4514C220.359 44.1722 220.698 43.6976 220.959 43.0277L221.308 42.1204L213.617 20.0671H219.87L224.309 35.8115H224.532L229.012 20.0671H235.307L226.975 43.8233C226.574 44.9771 226.03 45.9821 225.341 46.8381C224.662 47.7035 223.801 48.3688 222.759 48.8341C221.717 49.3087 220.461 49.546 218.991 49.546ZM238.35 41.5063V20.0671H244.017V23.8496H244.268C244.715 22.5934 245.459 21.6024 246.502 20.8766C247.544 20.1508 248.791 19.7879 250.242 19.7879C251.712 19.7879 252.964 20.1555 253.997 20.8906C255.03 21.6164 255.718 22.6027 256.063 23.8496H256.286C256.723 22.6213 257.514 21.6397 258.659 20.9045C259.813 20.1601 261.176 19.7879 262.748 19.7879C264.749 19.7879 266.373 20.4253 267.62 21.7001C268.876 22.9656 269.504 24.7615 269.504 27.0878V41.5063H263.572V28.2603C263.572 27.0692 263.256 26.1759 262.623 25.5804C261.99 24.9849 261.199 24.6871 260.25 24.6871C259.171 24.6871 258.328 25.0314 257.724 25.72C257.119 26.3993 256.816 27.2972 256.816 28.4138V41.5063H251.052V28.1347C251.052 27.0832 250.749 26.2457 250.145 25.6223C249.549 24.9988 248.763 24.6871 247.786 24.6871C247.125 24.6871 246.529 24.8546 245.999 25.1896C245.478 25.5153 245.064 25.9759 244.757 26.5714C244.45 27.1576 244.296 27.8462 244.296 28.6372V41.5063H238.35Z" fill="white"/>
<defs>
<clipPath id="clip0_1221_19">
<rect width="40.6145" height="40.6145" fill="white" transform="translate(29.6682 4.78589) rotate(8.57135)"/>
</clipPath>
</defs>
</svg>
