<svg width="141" height="80" viewBox="0 0 141 80" fill="none" xmlns="http://www.w3.org/2000/svg">
<circle cx="69.9398" cy="13.4369" r="13.4369" fill="white"/>
<g clip-path="url(#clip0_1238_950)">
<path d="M88.572 14.1774C88.572 14.1774 91.2427 28.6217 66.0613 32.7093C52.3786 34.9291 40.0548 45.3528 47.6729 67.0027C50.4244 58.6069 58.4959 40.5127 77.1405 39.881C77.1405 39.881 59.3397 42.6191 52.0625 70.2698C60.3008 73.2276 80.0372 78.1707 89.5411 62.1287C102.094 40.9328 88.572 14.1774 88.572 14.1774Z" fill="white"/>
<path d="M52.0944 70.1551C71.6067 66.7148 88.2211 52.5996 94.2153 32.8691C92.6 22.1678 88.572 14.1774 88.572 14.1774C88.572 14.1774 91.2427 28.6217 66.0613 32.7093C52.3786 34.9291 40.0548 45.3528 47.6729 67.0027C50.4244 58.6069 58.4959 40.5127 77.1405 39.881C77.1395 39.8809 59.391 42.6139 52.0944 70.1551Z" fill="white"/>
<path d="M48.9373 21.7288C49.8768 21.8704 50.7532 21.2236 50.8948 20.2841C51.0364 19.3447 50.3896 18.4683 49.4501 18.3266C48.5106 18.185 47.6342 18.8319 47.4926 19.7713C47.351 20.7108 47.9978 21.5872 48.9373 21.7288Z" fill="white"/>
<path d="M55.4015 25.3168C56.0725 25.4179 56.6985 24.956 56.7996 24.2849C56.9008 23.6139 56.4388 22.9879 55.7678 22.8868C55.0967 22.7856 54.4707 23.2476 54.3696 23.9187C54.2685 24.5897 54.7305 25.2157 55.4015 25.3168Z" fill="white"/>
<path d="M50.9881 33.1343C51.5249 33.2153 52.0257 32.8457 52.1066 32.3088C52.1876 31.772 51.818 31.2712 51.2811 31.1903C50.7443 31.1094 50.2435 31.479 50.1626 32.0158C50.0817 32.5526 50.4513 33.0534 50.9881 33.1343Z" fill="white"/>
<path d="M58.8345 31.494C60.3779 31.7266 61.8176 30.6641 62.0502 29.1207C62.2829 27.5773 61.2203 26.1375 59.6769 25.9049C58.1335 25.6723 56.6937 26.7349 56.4611 28.2782C56.2285 29.8216 57.2911 31.2614 58.8345 31.494Z" fill="white"/>
</g>
<rect x="114.487" y="37.5715" width="25.947" height="7.87678" rx="3.93839" fill="#F0F0F0"/>
<rect x="108.283" y="13.9412" width="10.8431" height="55.7647" rx="5.42157" fill="white"/>
<rect x="122.224" y="20.1373" width="10.8431" height="40.2745" rx="5.42157" fill="white"/>
<rect width="25.947" height="7.87678" rx="3.93839" transform="matrix(-1 0 0 1 25.947 37.5715)" fill="#F0F0F0"/>
<rect width="10.8431" height="55.7647" rx="5.42157" transform="matrix(-1 0 0 1 32.1506 13.9412)" fill="white"/>
<rect width="10.8431" height="40.2745" rx="5.42157" transform="matrix(-1 0 0 1 18.2095 20.1373)" fill="white"/>
<path d="M50.4202 12.2461C52.0855 12.5021 53.6389 11.3325 53.8899 9.6337C54.1409 7.93488 52.9944 6.35014 51.3292 6.09409C49.6639 5.83804 48.1105 7.00763 47.8595 8.70645C47.6085 10.4053 48.755 11.99 50.4202 12.2461Z" fill="white"/>
<defs>
<clipPath id="clip0_1238_950">
<rect width="62.9127" height="62.9127" fill="white" transform="translate(45.0295 7.41344) rotate(8.57135)"/>
</clipPath>
</defs>
</svg>
